<svg width="162" height="37" viewBox="0 0 162 37" fill="none" xmlns="http://www.w3.org/2000/svg">
<path d="M5.55859 26.9824V36H0.285156V10.4063H10.2695C12.1914 10.4063 13.8789 10.7578 15.332 11.4609C16.7969 12.1641 17.9219 13.166 18.707 14.4668C19.4922 15.7559 19.8848 17.2266 19.8848 18.8789C19.8848 21.3867 19.0234 23.3672 17.3008 24.8203C15.5898 26.2617 13.2168 26.9824 10.1816 26.9824H5.55859ZM5.55859 22.7109H10.2695C11.6641 22.7109 12.7246 22.3828 13.4512 21.7266C14.1895 21.0703 14.5586 20.1328 14.5586 18.9141C14.5586 17.6602 14.1895 16.6465 13.4512 15.873C12.7129 15.0996 11.6934 14.7012 10.3926 14.6777H5.55859V22.7109Z" fill="white"/>
<path d="M28.5508 36H23.4531V9H28.5508V36Z" fill="white"/>
<path d="M43.7734 36C43.5391 35.543 43.3691 34.9746 43.2637 34.2949C42.0332 35.666 40.4336 36.3516 38.4648 36.3516C36.6016 36.3516 35.0547 35.8125 33.8242 34.7344C32.6055 33.6562 31.9961 32.2969 31.9961 30.6563C31.9961 28.6406 32.7402 27.0938 34.2285 26.0156C35.7285 24.9375 37.8906 24.3926 40.7148 24.3809H43.0527V23.291C43.0527 22.4121 42.8242 21.709 42.3672 21.1816C41.9219 20.6543 41.2129 20.3906 40.2402 20.3906C39.3848 20.3906 38.7109 20.5957 38.2188 21.0059C37.7383 21.416 37.498 21.9785 37.498 22.6934H32.418C32.418 21.5918 32.7578 20.5723 33.4375 19.6348C34.1172 18.6973 35.0781 17.9648 36.3203 17.4375C37.5625 16.8984 38.957 16.6289 40.5039 16.6289C42.8477 16.6289 44.7051 17.2207 46.0762 18.4043C47.459 19.5762 48.1504 21.2285 48.1504 23.3613V31.6055C48.1621 33.4102 48.4141 34.7754 48.9062 35.7012V36H43.7734ZM39.5723 32.4668C40.3223 32.4668 41.0137 32.3027 41.6465 31.9746C42.2793 31.6348 42.748 31.1836 43.0527 30.6211V27.3516H41.1543C38.6113 27.3516 37.2578 28.2305 37.0938 29.9883L37.0762 30.2871C37.0762 30.9199 37.2988 31.4414 37.7441 31.8516C38.1895 32.2617 38.7988 32.4668 39.5723 32.4668Z" fill="white"/>
<path d="M56.7285 16.9805L56.8867 19.1777C58.2461 17.4785 60.0684 16.6289 62.3535 16.6289C64.3691 16.6289 65.8691 17.2207 66.8535 18.4043C67.8379 19.5879 68.3418 21.3574 68.3652 23.7129V36H63.2852V23.8359C63.2852 22.7578 63.0508 21.9785 62.582 21.498C62.1133 21.0059 61.334 20.7598 60.2441 20.7598C58.8145 20.7598 57.7422 21.3691 57.0273 22.5879V36H51.9473V16.9805H56.7285Z" fill="white"/>
<path d="M78.3145 12.3047V16.9805H81.5664V20.707H78.3145V30.1992C78.3145 30.9023 78.4492 31.4063 78.7188 31.7109C78.9883 32.0156 79.5039 32.168 80.2656 32.168C80.8281 32.168 81.3262 32.127 81.7598 32.0449V35.8945C80.7637 36.1992 79.7383 36.3516 78.6836 36.3516C75.1211 36.3516 73.3047 34.5527 73.2344 30.9551V20.707H70.457V16.9805H73.2344V12.3047H78.3145Z" fill="white"/>
<path d="M89.7578 36H84.6602V16.9805H89.7578V36ZM84.3613 12.0586C84.3613 11.2969 84.6133 10.6699 85.1172 10.1777C85.6328 9.68555 86.3301 9.43946 87.209 9.43946C88.0762 9.43946 88.7676 9.68555 89.2832 10.1777C89.7988 10.6699 90.0566 11.2969 90.0566 12.0586C90.0566 12.832 89.793 13.4648 89.2656 13.957C88.75 14.4492 88.0645 14.6953 87.209 14.6953C86.3535 14.6953 85.6621 14.4492 85.1348 13.957C84.6191 13.4648 84.3613 12.832 84.3613 12.0586Z" fill="white"/>
<path d="M98.6348 16.9805L98.793 19.1777C100.152 17.4785 101.975 16.6289 104.26 16.6289C106.275 16.6289 107.775 17.2207 108.76 18.4043C109.744 19.5879 110.248 21.3574 110.271 23.7129V36H105.191V23.8359C105.191 22.7578 104.957 21.9785 104.488 21.498C104.02 21.0059 103.24 20.7598 102.15 20.7598C100.721 20.7598 99.6484 21.3691 98.9336 22.5879V36H93.8535V16.9805H98.6348Z" fill="white"/>
<path d="M119.096 19.0547C120.443 17.4375 122.137 16.6289 124.176 16.6289C128.301 16.6289 130.393 19.0254 130.451 23.8184V36H125.371V23.959C125.371 22.8691 125.137 22.0664 124.668 21.5508C124.199 21.0234 123.42 20.7598 122.33 20.7598C120.842 20.7598 119.764 21.334 119.096 22.4824V36H114.016V9H119.096V19.0547Z" fill="white"/>
<path d="M145.305 36C145.07 35.543 144.9 34.9746 144.795 34.2949C143.564 35.666 141.965 36.3516 139.996 36.3516C138.133 36.3516 136.586 35.8125 135.355 34.7344C134.137 33.6562 133.527 32.2969 133.527 30.6563C133.527 28.6406 134.271 27.0938 135.76 26.0156C137.26 24.9375 139.422 24.3926 142.246 24.3809H144.584V23.291C144.584 22.4121 144.355 21.709 143.898 21.1816C143.453 20.6543 142.744 20.3906 141.771 20.3906C140.916 20.3906 140.242 20.5957 139.75 21.0059C139.27 21.416 139.029 21.9785 139.029 22.6934H133.949C133.949 21.5918 134.289 20.5723 134.969 19.6348C135.648 18.6973 136.609 17.9648 137.852 17.4375C139.094 16.8984 140.488 16.6289 142.035 16.6289C144.379 16.6289 146.236 17.2207 147.607 18.4043C148.99 19.5762 149.682 21.2285 149.682 23.3613V31.6055C149.693 33.4102 149.945 34.7754 150.438 35.7012V36H145.305ZM141.104 32.4668C141.854 32.4668 142.545 32.3027 143.178 31.9746C143.811 31.6348 144.279 31.1836 144.584 30.6211V27.3516H142.686C140.143 27.3516 138.789 28.2305 138.625 29.9883L138.607 30.2871C138.607 30.9199 138.83 31.4414 139.275 31.8516C139.721 32.2617 140.33 32.4668 141.104 32.4668Z" fill="white"/>
<path fill-rule="evenodd" clip-rule="evenodd" d="M141.118 13.0415C144.08 12.0836 146.154 9.94008 146.678 7.56992C147.501 3.8395 144.562 0.727051 144.562 0.727051C144.562 0.727051 139.812 2.42165 138.984 6.17433C138.194 9.7568 140.93 12.775 141.118 13.0415ZM152.527 20.4491C155.823 20.7758 158.755 19.5687 160.274 17.4787C162.664 14.1919 161.12 9.90424 161.12 9.90424C161.12 9.90424 155.77 9.53926 153.365 12.8463C151.071 16.0037 152.454 20.1111 152.527 20.4491ZM150.313 12.7442C152.808 11.9372 154.551 10.1338 154.994 8.13719C155.688 5.00006 153.212 2.37796 153.212 2.37796C153.212 2.37796 149.215 3.80625 148.518 6.96466C147.853 9.97859 150.153 12.5209 150.313 12.7442Z" fill="white"/>
</svg>
