<svg width="24" height="24" viewBox="0 0 24 24" fill="none" xmlns="http://www.w3.org/2000/svg">
<path d="M18.5 7.47C17.76 8.2 17.57 9.25 17.92 10.15L15 13.07V11C15 10.45 14.55 10 14 10H12.97C13 9.83 13 9.67 13 9.5C13 6.46 10.54 4 7.49999 4C6.36718 3.99894 5.2617 4.34788 4.33479 4.9991C3.40787 5.65032 2.70478 6.572 2.32169 7.63807C1.93861 8.70414 1.89424 9.86253 2.19466 10.9548C2.49507 12.047 3.1256 13.0198 3.99999 13.74V20C3.99999 20.55 4.44999 21 4.99999 21H14C14.55 21 15 20.55 15 20V15.89L19.33 11.56C20.23 11.91 21.28 11.73 22 11L18.5 7.47ZM4.04999 10C4.02999 9.83 3.99999 9.67 3.99999 9.5C3.99999 7.57 5.56999 6 7.49999 6C9.42999 6 11 7.57 11 9.5C11 9.67 10.97 9.83 10.95 10H4.04999ZM13 19H5.99999V12H13V19Z" fill="white"/>
</svg>
