<svg width="24" height="24" viewBox="0 0 24 24" fill="none" xmlns="http://www.w3.org/2000/svg">
<path d="M11.964 6.97C11.964 6.97 8.88899 7.276 7.27899 5.935C5.66899 4.593 6.03599 2.03 6.03599 2.03C6.03599 2.03 9.11099 1.724 10.722 3.065C12.332 4.407 11.964 6.97 11.964 6.97V6.97Z" stroke="white" stroke-width="2" stroke-linecap="round" stroke-linejoin="round"/>
<path d="M12.036 6.97C12.036 6.97 15.111 7.276 16.721 5.935C18.331 4.593 17.964 2.03 17.964 2.03C17.964 2.03 14.889 1.724 13.279 3.065C11.669 4.407 12.036 6.97 12.036 6.97V6.97Z" stroke="white" stroke-width="2" stroke-linecap="round" stroke-linejoin="round"/>
<path d="M4 11C4 10.7348 4.10536 10.4804 4.29289 10.2929C4.48043 10.1054 4.73478 10 5 10H19C19.2652 10 19.5196 10.1054 19.7071 10.2929C19.8946 10.4804 20 10.7348 20 11V13C20 13.2652 19.8946 13.5196 19.7071 13.7071C19.5196 13.8946 19.2652 14 19 14H5C4.73478 14 4.48043 13.8946 4.29289 13.7071C4.10536 13.5196 4 13.2652 4 13V11Z" stroke="white" stroke-width="2" stroke-linecap="round" stroke-linejoin="round"/>
<path d="M5 14H19L17 22H7L5 14Z" stroke="white" stroke-width="2" stroke-linecap="round" stroke-linejoin="round"/>
</svg>
